<svg xmlns="http://www.w3.org/2000/svg" xmlns:xlink="http://www.w3.org/1999/xlink" version="1.1" id="Your_Icon" x="0px" y="0px" width="100px" height="100px" viewBox="5.0 -10.0 100.0 135.0" enable-background="new 0 0 100 100" xml:space="preserve">
<path fill="#000000" d="M96.566,64.727c1.991-7.106,2.83-12.888,2.491-17.188c-0.328-4.162-1.748-6.999-4.22-8.43  c-2.815-1.63-6.819-1.275-11.58,1.027c-1.298,0.628-2.631,1.39-3.971,2.267c-0.346-0.25-0.695-0.496-1.046-0.737  c0.69-4.469,1.138-7.857,1.332-10.077c0.098-1.128,0.133-1.961,0.107-2.548c-0.019-0.434-0.071-1.588-1.077-1.796  c-0.993-0.205-1.516,0.824-1.713,1.212c-0.238,0.468-0.51,1.127-0.833,2.015c-0.539,1.483-1.215,3.604-2.009,6.303  c-0.194,0.66-0.388,1.331-0.581,2.004c-1.257-0.667-2.545-1.281-3.863-1.842c-1.074-3.15-2.391-6.232-3.88-9.011  c-2-3.732-4.207-6.785-6.562-9.075c-2.681-2.607-5.474-4.138-8.304-4.55c-3.925-0.571-7.762,1.008-11.403,4.692  c-1.923,1.946-3.799,4.497-5.613,7.631c-2.801,0.844-5.466,2.286-7.971,4.319c-4.357,3.536-8.239,8.889-11.563,15.939  c-0.117-0.012-0.237-0.018-0.357-0.018c-1.903,0-3.447,1.543-3.447,3.447c0,0.607,0.157,1.177,0.433,1.672  c-2.756,3.49-5.024,7.321-6.768,11.445c-2.6,6.147-3.918,12.676-3.918,19.405c0,0.591,0.479,1.07,1.07,1.07h35.833  c0.45,1.379,1.747,2.376,3.276,2.376c1.53,0,2.826-0.997,3.276-2.376h55.18c0.591,0,1.07-0.479,1.07-1.07  C99.956,76.574,98.816,70.491,96.566,64.727z M2.912,75.771h7.942c-0.461,2.476-0.712,4.545-0.795,5.99H2.403  C2.448,79.731,2.62,77.732,2.912,75.771z M4.87,67.641h6.337c0.214,0.655,0.618,1.223,1.148,1.64  c-0.418,1.521-0.773,2.98-1.069,4.35H3.282C3.683,71.584,4.215,69.585,4.87,67.641z M8.489,59.51h7.247  c-0.514,1.211-0.988,2.421-1.423,3.618c-1.455,0.071-2.672,1.044-3.106,2.372H5.648C6.458,63.429,7.409,61.429,8.489,59.51z   M81.955,73.63c-0.052-0.16-0.116-0.314-0.19-0.463c0.836-1.15,1.443-2.486,1.795-3.969c0.12-0.505,0.21-1.025,0.27-1.558h1.421  c0.541,1.766,0.967,3.376,1.296,4.749c0.1,0.42,0.196,0.833,0.286,1.24H81.955z M70.151,73.63c-0.189-1.861-0.43-3.881-0.731-5.99  h6.749c0.318,1.395,0.597,2.751,0.838,4.046c-0.753,0.419-1.333,1.111-1.604,1.944H70.151z M14.371,70.014  c0.037,0.001,0.075,0.003,0.112,0.003c1.53,0,2.826-0.997,3.276-2.376h4.192c-0.471,2.113-0.852,4.134-1.153,5.99h-7.323  c0.09-0.407,0.186-0.821,0.286-1.24C13.937,71.661,14.139,70.864,14.371,70.014z M29.242,43.249h2.705  c-1.3,1.776-2.52,3.775-3.654,5.99h-4.387C25.445,47.137,27.215,45.096,29.242,43.249z M83.917,65.5  c-0.024-0.832-0.112-1.682-0.266-2.542c0.328,0.867,0.631,1.716,0.91,2.542H83.917z M80.229,71.623  c-0.346-0.175-0.726-0.293-1.128-0.342c-0.218-1.171-0.465-2.389-0.744-3.64h3.321C81.474,69.137,80.985,70.484,80.229,71.623z   M77.857,65.5c-0.481-1.959-1.039-3.973-1.682-5.99h4.22c0.341,0.8,0.623,1.614,0.838,2.422c0.329,1.236,0.511,2.432,0.55,3.568  H77.857z M41.748,65.5c0.091-1.959,0.211-3.974,0.371-5.99h6.017c-1.666,1.775-3.107,3.749-4.308,5.908  c-0.015,0.027-0.03,0.055-0.045,0.082H41.748z M42.705,67.641c-0.416,0.911-0.793,1.851-1.133,2.82  c0.023-0.916,0.052-1.858,0.087-2.82H42.705z M17.759,65.5c-0.167-0.511-0.45-0.97-0.818-1.345c0.98-1.598,2.193-3.155,3.6-4.645  h3.594c-0.643,2.017-1.201,4.031-1.682,5.99H17.759z M28.968,52.79c0.804-0.49,1.63-0.961,2.477-1.411h2.908  c-0.397,1.3-0.774,2.665-1.132,4.094c-0.157,0.629-0.308,1.261-0.454,1.896h-5.646c0.151-0.419,0.306-0.837,0.466-1.254  C28.005,55.024,28.464,53.909,28.968,52.79z M51.173,56.695V51.38h6.121c0.065,0.441,0.128,0.89,0.189,1.348  c-1.424,0.686-2.876,1.505-4.316,2.487C52.479,55.684,51.814,56.178,51.173,56.695z M54.891,41.108h-3.718v-5.56  C52.578,36.382,53.825,38.244,54.891,41.108z M55.597,43.249c0.038,0.131,0.076,0.264,0.114,0.398  c-1.479-0.094-2.996-0.102-4.538-0.025v-0.373H55.597z M62.996,49.239h-3.871c-0.185-1.097-0.384-2.138-0.596-3.123  c1.225,0.19,2.416,0.446,3.568,0.769C62.414,47.656,62.713,48.443,62.996,49.239z M64.742,47.767  c1.089,0.426,2.135,0.917,3.133,1.472h-2.609C65.094,48.737,64.919,48.246,64.742,47.767z M63.67,45.098  c-0.279-0.641-0.565-1.258-0.858-1.849h2.817c0.968,1.19,1.858,2.461,2.673,3.776C66.843,46.257,65.298,45.613,63.67,45.098z   M60.979,44.381c-0.97-0.213-1.965-0.385-2.984-0.516c-0.054-0.208-0.109-0.414-0.165-0.616H60.4  C60.598,43.619,60.791,43.996,60.979,44.381z M57.17,41.108c-0.582-1.697-1.231-3.127-1.949-4.294  c1.463,1.051,2.763,2.535,3.916,4.294H57.17z M49.033,35.612v5.496h-3.614C46.458,38.314,47.67,36.474,49.033,35.612z   M49.033,43.249v0.532c-1.541,0.152-3.099,0.387-4.661,0.702c0.111-0.425,0.224-0.836,0.341-1.234H49.033z M43.83,46.786  c1.759-0.395,3.496-0.68,5.202-0.856v3.31h-5.675C43.507,48.384,43.664,47.567,43.83,46.786z M51.173,45.764  c1.743-0.089,3.446-0.061,5.098,0.081c0.244,1.058,0.47,2.19,0.68,3.394h-5.778V45.764z M59.459,51.38h1.219  c-0.381,0.139-0.767,0.288-1.156,0.446C59.501,51.676,59.48,51.527,59.459,51.38z M63.708,41.108h-2.048  c-0.208-0.355-0.419-0.699-0.633-1.031c-0.609-0.944-1.243-1.794-1.899-2.551C60.8,38.496,62.323,39.716,63.708,41.108z   M45.088,36.814c-0.718,1.167-1.367,2.597-1.949,4.294h-1.967C42.325,39.349,43.625,37.865,45.088,36.814z M42.48,43.249  c-0.157,0.565-0.307,1.154-0.452,1.767c-0.124,0.031-0.248,0.063-0.373,0.095c-1.036,0.271-2.063,0.575-3.079,0.908  c0.416-0.958,0.86-1.886,1.332-2.771H42.48z M41.524,47.364c-0.118,0.606-0.232,1.23-0.34,1.875h-3.871  c0.069-0.195,0.139-0.389,0.21-0.582C38.832,48.172,40.168,47.74,41.524,47.364z M35.298,55.993  c0.378-1.509,0.809-3.065,1.298-4.613h4.254c-0.142,0.99-0.275,2.021-0.398,3.093c-0.11,0.958-0.209,1.926-0.299,2.897h-5.188  C35.072,56.91,35.183,56.451,35.298,55.993z M42.578,54.717c0.133-1.16,0.279-2.273,0.436-3.337h6.018v5.99h-6.73  C42.386,56.48,42.478,55.594,42.578,54.717z M54.374,56.983c1.1-0.75,2.237-1.412,3.387-1.994c0.089,0.788,0.17,1.583,0.245,2.38  h-4.184C54.005,57.239,54.188,57.11,54.374,56.983z M59.857,54.473c-0.017-0.145-0.034-0.289-0.051-0.433  c1.442-0.611,2.88-1.103,4.266-1.49c0.344,1.158,0.657,2.313,0.939,3.442c0.115,0.458,0.226,0.917,0.334,1.376h-5.188  C60.067,56.398,59.968,55.431,59.857,54.473z M67.088,55.473c-0.298-1.19-0.609-2.336-0.934-3.436  c0.733-0.157,1.443-0.284,2.121-0.383c0.524,1.235,1.748,2.102,3.174,2.102c0.105,0,0.209-0.005,0.311-0.015  c0.343,0.799,0.664,1.593,0.963,2.374c0.159,0.417,0.314,0.835,0.466,1.254h-5.646C67.396,56.735,67.245,56.102,67.088,55.473z   M74.722,55.351c-0.322-0.841-0.654-1.66-0.995-2.457c0.213-0.188,0.403-0.402,0.565-0.637c2.009,1.056,3.738,2.937,5.022,5.113  H75.46C75.224,56.694,74.978,56.02,74.722,55.351z M68.665,43.249h0.542c0.091,0.381,0.177,0.761,0.259,1.139  C69.211,44.012,68.944,43.632,68.665,43.249z M41.181,37.527c-0.657,0.757-1.29,1.607-1.899,2.551  c-0.214,0.332-0.425,0.676-0.633,1.031h-2.048C37.986,39.716,39.509,38.496,41.181,37.527z M37.497,43.249  c-0.571,1.154-1.117,2.403-1.637,3.746c-1.699,0.664-3.357,1.414-4.961,2.244h-0.176c1.142-2.101,2.455-4.142,3.957-5.99H37.497z   M25.588,55.351c-0.256,0.67-0.502,1.343-0.738,2.019h-2.102c0.94-0.838,1.941-1.646,2.996-2.421  C25.692,55.082,25.639,55.216,25.588,55.351z M26.384,59.51h5.917c-0.418,2.014-0.78,4.028-1.09,5.99h-6.557  C25.149,63.538,25.722,61.523,26.384,59.51z M34.486,59.51h5.485c-0.158,2.019-0.277,4.033-0.366,5.99h-6.23  C33.686,63.555,34.054,61.541,34.486,59.51z M49.033,61.69v3.81h-2.795C47.064,64.144,47.995,62.873,49.033,61.69z M51.173,59.51  h7.018c0.16,2.016,0.28,4.031,0.371,5.99h-7.389V59.51z M60.338,59.51h5.485c0.432,2.031,0.8,4.044,1.112,5.99h-6.23  C60.615,63.543,60.496,61.529,60.338,59.51z M68.009,59.51h5.917c0.661,2.013,1.235,4.028,1.729,5.99h-6.557  C68.788,63.538,68.427,61.524,68.009,59.51z M78.953,53.276c-0.662-0.726-1.357-1.359-2.076-1.896h1.004  c0.488,0.749,0.949,1.5,1.383,2.248C79.162,53.509,79.058,53.391,78.953,53.276z M71.762,44.932  c-0.085-0.428-0.175-0.859-0.271-1.291c0.166,0.156,0.33,0.314,0.492,0.472C71.908,44.391,71.834,44.664,71.762,44.932z   M67.007,41.108c-0.6-0.731-1.239-1.465-1.912-2.195c1.189,0.666,2.314,1.403,3.379,2.195H67.007z M34.729,39.917  c-0.366,0.381-0.727,0.779-1.083,1.192h-1.811c1.438-1.071,2.987-2.039,4.654-2.87C35.89,38.76,35.303,39.319,34.729,39.917z   M27.163,51.38c-0.929,0.587-1.833,1.202-2.708,1.844c-1.785,1.31-3.405,2.698-4.842,4.146h-0.554  c0.186-0.383,0.377-0.766,0.573-1.149c0.81-1.583,1.739-3.217,2.797-4.841H27.163z M24.14,67.641h6.749  c-0.301,2.109-0.542,4.129-0.731,5.99h-7.197C23.269,71.773,23.658,69.752,24.14,67.641z M33.048,67.641h6.468  c-0.077,2.118-0.122,4.139-0.147,5.99h-7.056C32.5,71.793,32.741,69.772,33.048,67.641z M45.058,67.641h3.975v5.99h-6.21  C43.39,71.494,44.136,69.497,45.058,67.641z M51.173,67.641h7.477c0.078,2.117,0.123,4.138,0.148,5.99h-7.625V67.641z   M60.793,67.641h6.468c0.307,2.132,0.548,4.152,0.735,5.99h-7.056C60.914,71.779,60.87,69.758,60.793,67.641z M87.485,67.641h7.851  c0.654,1.944,1.187,3.944,1.588,5.99h-7.901C88.622,71.775,88.114,69.754,87.485,67.641z M94.557,65.5h-7.741  c-0.642-1.958-1.386-3.972-2.242-5.99h7.143C92.797,61.429,93.747,63.429,94.557,65.5z M83.622,57.369  c-0.331-0.711-0.677-1.419-1.037-2.124c-0.689-1.346-1.411-2.635-2.165-3.866h5.532c1.645,1.873,3.146,3.875,4.486,5.99H83.622z   M79.038,49.239c-0.621-0.912-1.26-1.787-1.919-2.626c0.693-0.552,1.39-1.075,2.085-1.567c1.674,1.292,3.26,2.694,4.748,4.193  H79.038z M76.403,49.239h-1.679c-0.049-0.15-0.107-0.296-0.176-0.436c0.302-0.274,0.605-0.544,0.91-0.809  C75.783,48.406,76.097,48.821,76.403,49.239z M73.447,46.915c0.086-0.321,0.175-0.654,0.266-0.996  c0.128,0.142,0.254,0.285,0.379,0.428C73.876,46.533,73.661,46.723,73.447,46.915z M50.99,32.987  c-0.061-0.001-0.122-0.002-0.183-0.003c-0.037-0.001-0.074-0.001-0.111-0.002c-0.163-0.002-0.326-0.004-0.49-0.004  c-0.002,0-0.005,0-0.007,0c-0.007,0-0.014,0-0.02,0c-0.018,0-0.037,0-0.055,0c-0.002,0-0.004,0-0.005,0c-0.005,0-0.01,0-0.016,0  c-0.138,0-0.275,0.001-0.412,0.003c-6.345,0.051-12.507,1.275-18.335,3.643c1.273-3.069,2.58-5.8,3.914-8.187  c1.504-0.375,3.052-0.563,4.644-0.563c0.172,0,0.345,0.002,0.518,0.007c4.732,0.12,9.883,1.996,14.873,5.364  C53.877,33.098,52.439,33.012,50.99,32.987z M30.676,39.255c-0.248,0.182-0.494,0.368-0.738,0.559  c-0.53,0.413-1.051,0.845-1.565,1.295h-1.398C28.178,40.439,29.413,39.821,30.676,39.255z M23.489,43.249h2.632  c-1.725,1.777-3.343,3.777-4.849,5.99h-4.045c-0.076-0.234-0.177-0.457-0.299-0.666C18.95,46.613,21.145,44.83,23.489,43.249z   M13.949,53.756c1.53,0,2.826-0.997,3.276-2.376h2.664c-0.753,1.231-1.475,2.52-2.165,3.866c-0.361,0.704-0.706,1.413-1.037,2.124  h-6.92c0.857-1.353,1.78-2.661,2.766-3.918C12.966,53.646,13.445,53.756,13.949,53.756z M13.033,75.771h7.443  c-0.346,2.476-0.533,4.545-0.596,5.99h-7.677C12.294,80.318,12.563,78.225,13.033,75.771z M22.631,75.771h7.326  c-0.212,2.447-0.325,4.512-0.362,5.99h-7.574C22.085,80.322,22.278,78.25,22.631,75.771z M32.112,75.771h7.237  c-0.009,1.416-0.009,2.693-0.005,3.789c-1.035,0.343-1.852,1.164-2.191,2.201H31.74C31.779,80.455,31.887,78.369,32.112,75.771z   M41.729,79.639c0.141-1.332,0.339-2.622,0.592-3.868h6.711v5.99h-5.327C43.391,80.796,42.662,80.019,41.729,79.639z M51.173,75.771  h7.647c0.015,2.236,0.004,4.126-0.004,5.498c-0.001,0.172-0.002,0.335-0.003,0.492h-7.64V75.771z M60.957,81.281  c0.008-1.376,0.018-3.27,0.004-5.51h7.237c0.225,2.598,0.333,4.685,0.372,5.99h-7.615C60.955,81.608,60.956,81.448,60.957,81.281z   M70.352,75.771h5.05c0.379,1.162,1.359,2.053,2.574,2.304c0.168,1.468,0.269,2.719,0.312,3.685h-7.574  C70.677,80.283,70.564,78.218,70.352,75.771z M80.098,77.841c0.875-0.396,1.555-1.147,1.857-2.07h5.322  c0.47,2.454,0.739,4.547,0.83,5.99h-7.677C80.385,80.74,80.279,79.408,80.098,77.841z M89.455,75.771h7.838  c0.292,1.961,0.464,3.96,0.509,5.99H90.25C90.167,80.316,89.916,78.247,89.455,75.771z M84.189,42.063  c2.853-1.38,6.831-2.691,9.575-1.102c3.736,2.164,4.225,9.427,1.432,20.585c-2.449-5.186-5.753-9.878-9.842-13.967  c-1.353-1.353-2.772-2.619-4.253-3.798C82.145,43.128,83.178,42.552,84.189,42.063z M75.758,44.962  c-0.451-0.52-0.91-1.024-1.376-1.511c0.018-0.067,0.037-0.134,0.055-0.202h2.28c0.227,0.153,0.452,0.308,0.676,0.465  C76.847,44.113,76.301,44.529,75.758,44.962z M75.836,38.282c0.528-1.82,0.972-3.28,1.345-4.451  c-0.212,1.768-0.517,3.962-0.911,6.554c-0.293-0.181-0.587-0.359-0.884-0.534C75.535,39.327,75.685,38.802,75.836,38.282z   M72.865,40.907c-0.019,0.067-0.038,0.135-0.056,0.202h-0.872c-0.455-0.398-0.917-0.783-1.386-1.152  c-0.025-0.088-0.05-0.177-0.076-0.265C71.284,40.074,72.081,40.479,72.865,40.907z M50.549,16.418  c4.601,0.669,9.32,5.115,13.287,12.518c1.164,2.172,2.217,4.534,3.126,6.965c-2.343-0.843-4.736-1.505-7.17-1.985  c-5.522-4.499-12.283-7.998-19.306-8.176c-1.272-0.032-2.523,0.046-3.751,0.232C41.151,19.001,45.831,15.732,50.549,16.418z   M32.304,29.444c-1.288,2.508-2.542,5.317-3.758,8.422c-3.944,1.891-7.597,4.28-10.915,7.134  C21.819,37.061,26.726,31.861,32.304,29.444z"/>
<text x="0.0" y="117.5" font-size="5.0" font-weight="bold" font-family="Helvetica Neue, Helvetica, Arial-Unicode, Arial, Sans-serif" fill="#000000">Created by Piotrek Chuchla</text><text x="0.0" y="122.5" font-size="5.0" font-weight="bold" font-family="Helvetica Neue, Helvetica, Arial-Unicode, Arial, Sans-serif" fill="#000000">from the Noun Project</text></svg>