<svg xmlns="http://www.w3.org/2000/svg" xmlns:xlink="http://www.w3.org/1999/xlink" version="1.1" id="Layer_1" x="0px" y="0px" width="100px" height="100px" viewBox="5.0 -10.0 100.0 135.0" enable-background="new 0 0 100 100" xml:space="preserve">
<g>
	<g>
		<path d="M91.309,39.849l-6.439,3.777l-0.04,2.768l-8.5,9.798c-0.724,0.836-0.635,2.1,0.2,2.822c0.835,0.725,2.1,0.637,2.823-0.199    l5.389-6.212l-0.13,9.091c0,1.066,0.727,1.963,1.71,2.225c-0.019,0.111-0.03,0.229-0.03,0.348v19.336l-2.714,0.645    c-1.187,0-2.147,0.961-2.147,2.146s0.961,0.996,2.147,0.996h4.642c0.072,0.008,0.146,0.01,0.221,0.01    c1.188,0,2.146-0.961,2.146-2.146V64.265c0-0.104-0.01-0.203-0.022-0.305c1.077-0.191,1.897-1.131,1.897-2.266l1.15-19.542    C93.611,40.88,92.579,39.849,91.309,39.849z"/>
		<circle cx="88.438" cy="34.724" r="4.441"/>
	</g>
	<g>
		<path d="M16.423,84.247l-2.714-0.645V64.267c0-0.119-0.012-0.236-0.03-0.348c0.983-0.262,1.71-1.158,1.71-2.225l-0.13-9.091    l-0.088-6.209l-0.04-2.768l-6.439-3.777c-1.271,0-2.303,1.031-2.303,2.304l1.15,19.542c0,1.135,0.82,2.074,1.897,2.266    c-0.013,0.102-0.022,0.201-0.022,0.305v20.988c0,1.186,0.959,2.146,2.146,2.146c0.075,0,0.148-0.002,0.221-0.01h4.642    c1.187,0,2.147,0.189,2.147-0.996S17.609,84.247,16.423,84.247z"/>
		<circle cx="11.563" cy="34.724" r="4.441"/>
	</g>
	<path d="M73.161,12.599H22.42c-1.481,0-2.68,1.2-2.68,2.68V46.26c0,1.48,1.199,2.68,2.68,2.68h23.838v12.611h-0.001l-8.532,8.534   c-0.311,0.311-0.311,0.813,0,1.123l0.162,0.164c0.312,0.31,0.815,0.31,1.126,0l7.244-7.244h0.001v6.794   c0,0.737,0.6,1.338,1.34,1.338h0.385c0.74,0,1.34-0.601,1.34-1.338v-6.759l7.209,7.209c0.311,0.31,0.814,0.31,1.125,0l0.162-0.164   c0.311-0.312,0.311-0.813,0-1.123l-8.499-8.553l0.001-12.592h23.838c1.481,0,2.681-1.2,2.681-2.68V15.279   C75.842,13.799,74.643,12.599,73.161,12.599z M23.869,21.474h8.294c0.402,0,0.728,0.326,0.728,0.728   c0,0.401-0.326,0.727-0.728,0.727h-8.294c-0.402,0-0.728-0.326-0.728-0.727S23.467,21.474,23.869,21.474z M32.891,43.976   c-2.309,0-4.18-1.872-4.18-4.18c0-2.309,1.872-4.18,4.18-4.18v4.18h4.18C37.071,42.104,35.199,43.976,32.891,43.976z    M33.648,39.039v-3.035c1.676,0,3.035,1.359,3.035,3.035H33.648z M43.157,31.337H23.869c-0.402,0-0.728-0.326-0.728-0.728   c0-0.402,0.326-0.728,0.728-0.728h19.288c0.402,0,0.728,0.326,0.728,0.728C43.885,31.011,43.559,31.337,43.157,31.337z    M43.157,27.134H23.869c-0.402,0-0.728-0.326-0.728-0.728c0-0.401,0.326-0.727,0.728-0.727h19.288c0.402,0,0.728,0.326,0.728,0.727   S43.559,27.134,43.157,27.134z M53.319,42.574c0,0.759-0.616,1.374-1.375,1.374h-3.54c-0.759,0-1.375-0.615-1.375-1.374v-9.263   c0-0.759,0.616-1.375,1.375-1.375h3.54c0.759,0,1.375,0.616,1.375,1.375V42.574z M62.356,42.574c0,0.759-0.615,1.374-1.375,1.374   h-3.54c-0.759,0-1.374-0.615-1.374-1.374v-14.76c0-0.759,0.615-1.374,1.374-1.374h3.54c0.759,0,1.375,0.615,1.375,1.374V42.574z    M71.395,42.574c0,0.759-0.616,1.374-1.375,1.374h-3.54c-0.76,0-1.375-0.615-1.375-1.374V19.569c0-0.759,0.615-1.374,1.375-1.374   h3.54c0.759,0,1.375,0.615,1.375,1.374V42.574z"/>
</g>
<text x="0.0" y="117.5" font-size="5.0" font-weight="bold" font-family="Helvetica Neue, Helvetica, Arial-Unicode, Arial, Sans-serif" fill="#000000">Created by Wilson Joseph</text><text x="0.0" y="122.5" font-size="5.0" font-weight="bold" font-family="Helvetica Neue, Helvetica, Arial-Unicode, Arial, Sans-serif" fill="#000000">from the Noun Project</text></svg>