<svg xmlns="http://www.w3.org/2000/svg" xmlns:xlink="http://www.w3.org/1999/xlink" version="1.1" id="Layer_1" x="0px" y="0px" width="50px" height="50px" viewBox="2.5 -5.0 50.0 67.5" enable-background="new 0 0 50 50" xml:space="preserve">
<path fill-rule="evenodd" clip-rule="evenodd" fill="#000000" d="M25.24,21.57c2.269,0,4.057,1.789,4.057,4.061  c0,2.223-1.788,4.063-4.057,4.063c-2.227,0-4.064-1.84-4.064-4.063C21.176,23.358,23.013,21.57,25.24,21.57L25.24,21.57z   M17.989,15.912l3.959,4.596l-0.772,0.628l-3.916-4.593l-1.063,0.92l-0.388-3.095l3.239,0.628L17.989,15.912L17.989,15.912z   M13.732,23.021l5.994,0.772l-0.145,0.969l-5.998-0.776l-0.191,1.403l-2.321-2.03l2.805-1.693L13.732,23.021L13.732,23.021z   M15.135,30.902l5.076-3.289l0.53,0.822l-5.075,3.286l0.772,1.21l-3.141-0.048l1.063-3.144L15.135,30.902L15.135,30.902z   M21.176,35.931l-1.352-0.386l1.16,3.092l2.465-1.982l-1.355-0.389l1.84-5.799l-0.968-0.291L21.176,35.931L21.176,35.931z   M28.672,36.121l-2.079-5.704l0.916-0.29l2.032,5.656l1.356-0.48l-0.729,3.043l-2.85-1.738L28.672,36.121L28.672,36.121z   M35.053,31.144l-0.678,1.208l3.239-0.529l-1.401-2.762l-0.676,1.212l-5.318-2.9l-0.439,0.822L35.053,31.144L35.053,31.144z   M36.596,22.878l-5.895,1.397l-0.24-0.964l5.896-1.354l-0.336-1.404l2.945,1.112l-2.077,2.563L36.596,22.878L36.596,22.878z   M31.764,15.477l1.21,0.726l-0.385-3.288l-2.856,1.305l1.211,0.726l-3.192,5.126l0.823,0.529L31.764,15.477L31.764,15.477z   M25.674,13.446v6.047h-0.968v-6.047h-1.401l1.74-2.608l2.027,2.608H25.674L25.674,13.446z M25.24,3.294  c1.543,0,2.803,1.259,2.803,2.804c0,1.597-1.26,2.851-2.803,2.851c-1.548,0-2.804-1.254-2.804-2.851  C22.436,4.553,23.691,3.294,25.24,3.294L25.24,3.294z M10.782,8.564c1.21-1.014,2.95-0.869,3.965,0.292  c1.016,1.207,0.873,2.997-0.29,4.012c-1.16,1.015-2.951,0.873-3.965-0.341C9.478,11.369,9.624,9.58,10.782,8.564L10.782,8.564z   M3.242,21.958c0.24-1.5,1.692-2.563,3.238-2.32c1.499,0.243,2.563,1.641,2.32,3.19c-0.242,1.548-1.693,2.612-3.19,2.37  C4.062,24.957,3,23.503,3.242,21.958L3.242,21.958z M6.236,37.043c-0.821-1.309-0.435-3.047,0.92-3.869  c1.304-0.822,3.047-0.387,3.867,0.921c0.821,1.35,0.386,3.044-0.915,3.867C8.799,38.781,7.061,38.395,6.236,37.043L6.236,37.043z   M18.322,46.566c-1.497-0.436-2.318-2.031-1.836-3.529c0.484-1.452,2.03-2.274,3.529-1.836c1.5,0.482,2.324,2.077,1.839,3.574  C21.37,46.229,19.776,47.051,18.322,46.566L18.322,46.566z M33.648,45.988c-1.4,0.578-3.045-0.1-3.672-1.5  c-0.582-1.451,0.098-3.098,1.498-3.726c1.449-0.578,3.094,0.097,3.724,1.5C35.777,43.715,35.099,45.356,33.648,45.988L33.648,45.988  z M44.965,35.494c-0.725,1.4-2.417,1.98-3.824,1.258c-1.35-0.68-1.932-2.369-1.255-3.771c0.728-1.4,2.419-1.936,3.821-1.259  C45.057,32.4,45.639,34.095,44.965,35.494L44.965,35.494z M46.703,20.217c0.389,1.498-0.53,3.044-2.077,3.432  c-1.499,0.337-2.998-0.581-3.387-2.079c-0.382-1.498,0.536-3.047,2.031-3.385C44.82,17.801,46.316,18.717,46.703,20.217  L46.703,20.217z M38.099,7.452c1.258,0.918,1.547,2.662,0.675,3.965c-0.916,1.26-2.657,1.546-3.963,0.627  c-1.254-0.871-1.545-2.658-0.631-3.914C35.053,6.874,36.843,6.581,38.099,7.452z"/>
<text x="0.0" y="58.75" font-size="2.5" font-weight="bold" font-family="Helvetica Neue, Helvetica, Arial-Unicode, Arial, Sans-serif" fill="#000000">Created by Mister Pixel</text><text x="0.0" y="61.25" font-size="2.5" font-weight="bold" font-family="Helvetica Neue, Helvetica, Arial-Unicode, Arial, Sans-serif" fill="#000000">from the Noun Project</text></svg>